<mxfile host="app.diagrams.net" agent="Mozilla/5.0 (Macintosh; Intel Mac OS X 10_15_7) AppleWebKit/537.36 (KHTML, like Gecko) Chrome/133.0.0.0 Safari/537.36" version="26.1.0">
  <diagram name="Page-1" id="pjL-bmAQ-Hi1O2icRPsh">
    <mxGraphModel dx="1852" dy="1346" grid="1" gridSize="10" guides="1" tooltips="1" connect="1" arrows="1" fold="1" page="1" pageScale="1" pageWidth="850" pageHeight="1100" math="0" shadow="0">
      <root>
        <mxCell id="0" />
        <mxCell id="1" parent="0" />
        <mxCell id="CRWfg0r2GRIQuy8C0ufJ-1" value="User" style="shape=umlActor;verticalLabelPosition=bottom;verticalAlign=top;html=1;outlineConnect=0;" vertex="1" parent="1">
          <mxGeometry x="90" y="20" width="30" height="60" as="geometry" />
        </mxCell>
        <mxCell id="CRWfg0r2GRIQuy8C0ufJ-2" value="ProfileForm" style="shape=umlBoundary;whiteSpace=wrap;html=1;verticalAlign=top;fontSize=12;labelPosition=center;verticalLabelPosition=bottom;align=center;" vertex="1" parent="1">
          <mxGeometry x="240" y="20" width="70" height="60" as="geometry" />
        </mxCell>
        <mxCell id="CRWfg0r2GRIQuy8C0ufJ-3" value="ProfileController" style="ellipse;shape=umlControl;whiteSpace=wrap;html=1;labelPosition=center;verticalLabelPosition=bottom;align=center;verticalAlign=top;" vertex="1" parent="1">
          <mxGeometry x="420" y="10" width="60" height="70" as="geometry" />
        </mxCell>
        <mxCell id="CRWfg0r2GRIQuy8C0ufJ-5" value="User Database" style="shape=cylinder3;html=1;boundedLbl=1;backgroundOutline=1;size=15;labelPosition=center;verticalLabelPosition=bottom;align=center;verticalAlign=top;" vertex="1" parent="1">
          <mxGeometry x="610" y="20.000000000000057" width="40" height="60" as="geometry" />
        </mxCell>
        <mxCell id="CRWfg0r2GRIQuy8C0ufJ-6" value="" style="endArrow=none;dashed=1;html=1;rounded=0;" edge="1" parent="1">
          <mxGeometry width="50" height="50" relative="1" as="geometry">
            <mxPoint x="100" y="820" as="sourcePoint" />
            <mxPoint x="100" y="110" as="targetPoint" />
          </mxGeometry>
        </mxCell>
        <mxCell id="CRWfg0r2GRIQuy8C0ufJ-7" value="" style="endArrow=none;dashed=1;html=1;rounded=0;" edge="1" parent="1" source="CRWfg0r2GRIQuy8C0ufJ-13">
          <mxGeometry width="50" height="50" relative="1" as="geometry">
            <mxPoint x="280" y="940" as="sourcePoint" />
            <mxPoint x="280" y="110" as="targetPoint" />
          </mxGeometry>
        </mxCell>
        <mxCell id="CRWfg0r2GRIQuy8C0ufJ-8" value="" style="endArrow=none;dashed=1;html=1;rounded=0;" edge="1" parent="1" source="CRWfg0r2GRIQuy8C0ufJ-16">
          <mxGeometry width="50" height="50" relative="1" as="geometry">
            <mxPoint x="450" y="940" as="sourcePoint" />
            <mxPoint x="450" y="110" as="targetPoint" />
          </mxGeometry>
        </mxCell>
        <mxCell id="CRWfg0r2GRIQuy8C0ufJ-9" value="" style="endArrow=none;dashed=1;html=1;rounded=0;" edge="1" parent="1" source="CRWfg0r2GRIQuy8C0ufJ-35">
          <mxGeometry width="50" height="50" relative="1" as="geometry">
            <mxPoint x="630" y="940" as="sourcePoint" />
            <mxPoint x="630" y="110" as="targetPoint" />
          </mxGeometry>
        </mxCell>
        <mxCell id="CRWfg0r2GRIQuy8C0ufJ-10" value="" style="rounded=0;whiteSpace=wrap;html=1;" vertex="1" parent="1">
          <mxGeometry x="90" y="120" width="20" height="60" as="geometry" />
        </mxCell>
        <mxCell id="CRWfg0r2GRIQuy8C0ufJ-11" value="Enter new profile information" style="endArrow=classic;html=1;rounded=0;labelPosition=center;verticalLabelPosition=top;align=center;verticalAlign=bottom;" edge="1" parent="1">
          <mxGeometry width="50" height="50" relative="1" as="geometry">
            <mxPoint x="110" y="140" as="sourcePoint" />
            <mxPoint x="270" y="140" as="targetPoint" />
          </mxGeometry>
        </mxCell>
        <mxCell id="CRWfg0r2GRIQuy8C0ufJ-12" value="" style="endArrow=none;dashed=1;html=1;rounded=0;" edge="1" parent="1" source="CRWfg0r2GRIQuy8C0ufJ-27" target="CRWfg0r2GRIQuy8C0ufJ-13">
          <mxGeometry width="50" height="50" relative="1" as="geometry">
            <mxPoint x="280" y="940" as="sourcePoint" />
            <mxPoint x="280" y="110" as="targetPoint" />
          </mxGeometry>
        </mxCell>
        <mxCell id="CRWfg0r2GRIQuy8C0ufJ-13" value="" style="rounded=0;whiteSpace=wrap;html=1;" vertex="1" parent="1">
          <mxGeometry x="270" y="130" width="20" height="60" as="geometry" />
        </mxCell>
        <mxCell id="CRWfg0r2GRIQuy8C0ufJ-14" value="Send new profile request" style="endArrow=classic;html=1;rounded=0;labelPosition=center;verticalLabelPosition=top;align=center;verticalAlign=bottom;" edge="1" parent="1">
          <mxGeometry width="50" height="50" relative="1" as="geometry">
            <mxPoint x="290" y="160" as="sourcePoint" />
            <mxPoint x="440" y="160" as="targetPoint" />
          </mxGeometry>
        </mxCell>
        <mxCell id="CRWfg0r2GRIQuy8C0ufJ-15" value="" style="endArrow=none;dashed=1;html=1;rounded=0;" edge="1" parent="1" source="CRWfg0r2GRIQuy8C0ufJ-31" target="CRWfg0r2GRIQuy8C0ufJ-16">
          <mxGeometry width="50" height="50" relative="1" as="geometry">
            <mxPoint x="450" y="940" as="sourcePoint" />
            <mxPoint x="450" y="110" as="targetPoint" />
          </mxGeometry>
        </mxCell>
        <mxCell id="CRWfg0r2GRIQuy8C0ufJ-16" value="" style="rounded=0;whiteSpace=wrap;html=1;" vertex="1" parent="1">
          <mxGeometry x="440" y="140" width="20" height="60" as="geometry" />
        </mxCell>
        <mxCell id="CRWfg0r2GRIQuy8C0ufJ-18" value="Find user" style="endArrow=classic;html=1;rounded=0;labelPosition=center;verticalLabelPosition=top;align=center;verticalAlign=bottom;" edge="1" parent="1">
          <mxGeometry width="50" height="50" relative="1" as="geometry">
            <mxPoint x="460" y="180" as="sourcePoint" />
            <mxPoint x="620" y="180" as="targetPoint" />
          </mxGeometry>
        </mxCell>
        <mxCell id="CRWfg0r2GRIQuy8C0ufJ-19" value="" style="rounded=0;whiteSpace=wrap;html=1;" vertex="1" parent="1">
          <mxGeometry x="620" y="160" width="20" height="110" as="geometry" />
        </mxCell>
        <mxCell id="CRWfg0r2GRIQuy8C0ufJ-20" value="Request verification" style="endArrow=classic;html=1;rounded=0;dashed=1;labelPosition=center;verticalLabelPosition=top;align=center;verticalAlign=bottom;" edge="1" parent="1">
          <mxGeometry width="50" height="50" relative="1" as="geometry">
            <mxPoint x="620" y="240" as="sourcePoint" />
            <mxPoint x="460" y="240" as="targetPoint" />
          </mxGeometry>
        </mxCell>
        <mxCell id="CRWfg0r2GRIQuy8C0ufJ-21" value="" style="rounded=0;whiteSpace=wrap;html=1;" vertex="1" parent="1">
          <mxGeometry x="440" y="230" width="20" height="60" as="geometry" />
        </mxCell>
        <mxCell id="CRWfg0r2GRIQuy8C0ufJ-22" value="Request verification" style="endArrow=classic;html=1;rounded=0;dashed=1;labelPosition=center;verticalLabelPosition=top;align=center;verticalAlign=bottom;" edge="1" parent="1">
          <mxGeometry width="50" height="50" relative="1" as="geometry">
            <mxPoint x="440" y="260" as="sourcePoint" />
            <mxPoint x="290" y="260" as="targetPoint" />
          </mxGeometry>
        </mxCell>
        <mxCell id="CRWfg0r2GRIQuy8C0ufJ-23" value="" style="rounded=0;whiteSpace=wrap;html=1;" vertex="1" parent="1">
          <mxGeometry x="270" y="240" width="20" height="60" as="geometry" />
        </mxCell>
        <mxCell id="CRWfg0r2GRIQuy8C0ufJ-24" value="Show verification request" style="endArrow=classic;html=1;rounded=0;dashed=1;labelPosition=center;verticalLabelPosition=top;align=center;verticalAlign=bottom;" edge="1" parent="1">
          <mxGeometry width="50" height="50" relative="1" as="geometry">
            <mxPoint x="270" y="280" as="sourcePoint" />
            <mxPoint x="110" y="280" as="targetPoint" />
          </mxGeometry>
        </mxCell>
        <mxCell id="CRWfg0r2GRIQuy8C0ufJ-25" value="" style="rounded=0;whiteSpace=wrap;html=1;" vertex="1" parent="1">
          <mxGeometry x="90" y="270" width="20" height="80" as="geometry" />
        </mxCell>
        <mxCell id="CRWfg0r2GRIQuy8C0ufJ-26" value="Enter password to verify" style="endArrow=classic;html=1;rounded=0;labelPosition=center;verticalLabelPosition=top;align=center;verticalAlign=bottom;" edge="1" parent="1">
          <mxGeometry width="50" height="50" relative="1" as="geometry">
            <mxPoint x="110" y="340" as="sourcePoint" />
            <mxPoint x="270" y="340" as="targetPoint" />
          </mxGeometry>
        </mxCell>
        <mxCell id="CRWfg0r2GRIQuy8C0ufJ-28" value="" style="endArrow=none;dashed=1;html=1;rounded=0;" edge="1" parent="1" target="CRWfg0r2GRIQuy8C0ufJ-27">
          <mxGeometry width="50" height="50" relative="1" as="geometry">
            <mxPoint x="280" y="820" as="sourcePoint" />
            <mxPoint x="280" y="190" as="targetPoint" />
          </mxGeometry>
        </mxCell>
        <mxCell id="CRWfg0r2GRIQuy8C0ufJ-27" value="" style="rounded=0;whiteSpace=wrap;html=1;" vertex="1" parent="1">
          <mxGeometry x="270" y="330" width="20" height="50" as="geometry" />
        </mxCell>
        <mxCell id="CRWfg0r2GRIQuy8C0ufJ-29" value="Send password" style="endArrow=classic;html=1;rounded=0;labelPosition=center;verticalLabelPosition=top;align=center;verticalAlign=bottom;" edge="1" parent="1">
          <mxGeometry width="50" height="50" relative="1" as="geometry">
            <mxPoint x="290" y="360" as="sourcePoint" />
            <mxPoint x="440" y="360" as="targetPoint" />
          </mxGeometry>
        </mxCell>
        <mxCell id="CRWfg0r2GRIQuy8C0ufJ-30" value="" style="endArrow=none;dashed=1;html=1;rounded=0;" edge="1" parent="1" target="CRWfg0r2GRIQuy8C0ufJ-31">
          <mxGeometry width="50" height="50" relative="1" as="geometry">
            <mxPoint x="450" y="820" as="sourcePoint" />
            <mxPoint x="450" y="200" as="targetPoint" />
          </mxGeometry>
        </mxCell>
        <mxCell id="CRWfg0r2GRIQuy8C0ufJ-31" value="" style="rounded=0;whiteSpace=wrap;html=1;" vertex="1" parent="1">
          <mxGeometry x="440" y="340" width="20" height="60" as="geometry" />
        </mxCell>
        <mxCell id="CRWfg0r2GRIQuy8C0ufJ-33" value="Encrypt password and check" style="endArrow=classic;html=1;rounded=0;labelPosition=center;verticalLabelPosition=top;align=center;verticalAlign=bottom;" edge="1" parent="1">
          <mxGeometry width="50" height="50" relative="1" as="geometry">
            <mxPoint x="460" y="380" as="sourcePoint" />
            <mxPoint x="620" y="380" as="targetPoint" />
          </mxGeometry>
        </mxCell>
        <mxCell id="CRWfg0r2GRIQuy8C0ufJ-34" value="" style="endArrow=none;dashed=1;html=1;rounded=0;" edge="1" parent="1" target="CRWfg0r2GRIQuy8C0ufJ-35">
          <mxGeometry width="50" height="50" relative="1" as="geometry">
            <mxPoint x="630" y="820" as="sourcePoint" />
            <mxPoint x="630" y="110" as="targetPoint" />
          </mxGeometry>
        </mxCell>
        <mxCell id="CRWfg0r2GRIQuy8C0ufJ-35" value="" style="rounded=0;whiteSpace=wrap;html=1;" vertex="1" parent="1">
          <mxGeometry x="620" y="370" width="20" height="330" as="geometry" />
        </mxCell>
        <mxCell id="CRWfg0r2GRIQuy8C0ufJ-36" value="alt" style="shape=umlFrame;whiteSpace=wrap;html=1;pointerEvents=0;" vertex="1" parent="1">
          <mxGeometry x="10" y="440" width="710" height="350" as="geometry" />
        </mxCell>
        <mxCell id="CRWfg0r2GRIQuy8C0ufJ-38" value="Wrong password check" style="endArrow=classic;html=1;rounded=0;dashed=1;labelPosition=center;verticalLabelPosition=top;align=center;verticalAlign=bottom;" edge="1" parent="1">
          <mxGeometry width="50" height="50" relative="1" as="geometry">
            <mxPoint x="620" y="470" as="sourcePoint" />
            <mxPoint x="460" y="470" as="targetPoint" />
          </mxGeometry>
        </mxCell>
        <mxCell id="CRWfg0r2GRIQuy8C0ufJ-39" value="" style="rounded=0;whiteSpace=wrap;html=1;" vertex="1" parent="1">
          <mxGeometry x="440" y="460" width="20" height="60" as="geometry" />
        </mxCell>
        <mxCell id="CRWfg0r2GRIQuy8C0ufJ-41" value="Request verification" style="endArrow=classic;html=1;rounded=0;dashed=1;labelPosition=center;verticalLabelPosition=top;align=center;verticalAlign=bottom;" edge="1" parent="1">
          <mxGeometry width="50" height="50" relative="1" as="geometry">
            <mxPoint x="440" y="489.5" as="sourcePoint" />
            <mxPoint x="290" y="489.5" as="targetPoint" />
          </mxGeometry>
        </mxCell>
        <mxCell id="CRWfg0r2GRIQuy8C0ufJ-42" value="" style="rounded=0;whiteSpace=wrap;html=1;" vertex="1" parent="1">
          <mxGeometry x="270" y="480" width="20" height="60" as="geometry" />
        </mxCell>
        <mxCell id="CRWfg0r2GRIQuy8C0ufJ-43" value="Show error message" style="endArrow=classic;html=1;rounded=0;dashed=1;labelPosition=center;verticalLabelPosition=top;align=center;verticalAlign=bottom;" edge="1" parent="1">
          <mxGeometry width="50" height="50" relative="1" as="geometry">
            <mxPoint x="270" y="500" as="sourcePoint" />
            <mxPoint x="110" y="500" as="targetPoint" />
            <mxPoint as="offset" />
          </mxGeometry>
        </mxCell>
        <mxCell id="CRWfg0r2GRIQuy8C0ufJ-44" value="" style="rounded=0;whiteSpace=wrap;html=1;" vertex="1" parent="1">
          <mxGeometry x="90" y="490" width="20" height="60" as="geometry" />
        </mxCell>
        <mxCell id="CRWfg0r2GRIQuy8C0ufJ-45" value="" style="endArrow=none;dashed=1;html=1;rounded=0;fontFamily=Helvetica;fontSize=12;fontColor=default;exitX=0.001;exitY=0.224;exitDx=0;exitDy=0;exitPerimeter=0;" edge="1" parent="1">
          <mxGeometry width="50" height="50" relative="1" as="geometry">
            <mxPoint x="30.340000000000032" y="580.0799999999999" as="sourcePoint" />
            <mxPoint x="687.34" y="581.0799999999999" as="targetPoint" />
          </mxGeometry>
        </mxCell>
        <mxCell id="CRWfg0r2GRIQuy8C0ufJ-46" value="Password is correct, then edit&lt;div&gt;profile&lt;/div&gt;" style="endArrow=classic;html=1;rounded=0;dashed=1;labelPosition=center;verticalLabelPosition=top;align=center;verticalAlign=bottom;" edge="1" parent="1">
          <mxGeometry width="50" height="50" relative="1" as="geometry">
            <mxPoint x="620" y="620" as="sourcePoint" />
            <mxPoint x="460" y="620" as="targetPoint" />
          </mxGeometry>
        </mxCell>
        <mxCell id="CRWfg0r2GRIQuy8C0ufJ-47" value="" style="rounded=0;whiteSpace=wrap;html=1;" vertex="1" parent="1">
          <mxGeometry x="440" y="610" width="20" height="60" as="geometry" />
        </mxCell>
        <mxCell id="CRWfg0r2GRIQuy8C0ufJ-48" value="Return notification" style="endArrow=classic;html=1;rounded=0;dashed=1;labelPosition=center;verticalLabelPosition=top;align=center;verticalAlign=bottom;" edge="1" parent="1">
          <mxGeometry width="50" height="50" relative="1" as="geometry">
            <mxPoint x="440" y="640" as="sourcePoint" />
            <mxPoint x="290" y="640" as="targetPoint" />
          </mxGeometry>
        </mxCell>
        <mxCell id="CRWfg0r2GRIQuy8C0ufJ-49" value="" style="rounded=0;whiteSpace=wrap;html=1;" vertex="1" parent="1">
          <mxGeometry x="265" y="625" width="20" height="60" as="geometry" />
        </mxCell>
        <mxCell id="CRWfg0r2GRIQuy8C0ufJ-50" value="Show notification and navigate&lt;div&gt;to profile page&lt;/div&gt;" style="endArrow=classic;html=1;rounded=0;dashed=1;labelPosition=center;verticalLabelPosition=top;align=center;verticalAlign=bottom;" edge="1" parent="1">
          <mxGeometry width="50" height="50" relative="1" as="geometry">
            <mxPoint x="265" y="660" as="sourcePoint" />
            <mxPoint x="105" y="660" as="targetPoint" />
          </mxGeometry>
        </mxCell>
        <mxCell id="CRWfg0r2GRIQuy8C0ufJ-51" value="" style="rounded=0;whiteSpace=wrap;html=1;" vertex="1" parent="1">
          <mxGeometry x="95" y="650" width="20" height="60" as="geometry" />
        </mxCell>
        <mxCell id="CRWfg0r2GRIQuy8C0ufJ-52" value="Password is incorrect" style="text;align=center;fontStyle=1;verticalAlign=middle;spacingLeft=3;spacingRight=3;strokeColor=none;rotatable=0;points=[[0,0.5],[1,0.5]];portConstraint=eastwest;html=1;" vertex="1" parent="1">
          <mxGeometry x="130" y="440" width="80" height="26" as="geometry" />
        </mxCell>
        <mxCell id="CRWfg0r2GRIQuy8C0ufJ-53" value="Password is correct" style="text;align=center;fontStyle=1;verticalAlign=middle;spacingLeft=3;spacingRight=3;strokeColor=none;rotatable=0;points=[[0,0.5],[1,0.5]];portConstraint=eastwest;html=1;" vertex="1" parent="1">
          <mxGeometry x="120" y="580" width="80" height="26" as="geometry" />
        </mxCell>
      </root>
    </mxGraphModel>
  </diagram>
</mxfile>
